/* XPM */
static char *result[] = {
/* columns rows colors chars-per-pixel */
"16 16 42 1 ",
"  c #0044BF09F66D",
". c #04CCBC9DF813",
"X c #02C8C14BFAE9",
"o c #0350C307FB2B",
"O c #052CC143F9C9",
"+ c #06A6C315FB30",
"@ c #0370C4A3FA4D",
"# c #0170C103FCA9",
"$ c #075AC33DFC87",
"% c #0259C591FCE7",
"& c #0332C639FD41",
"* c #024EC5AFFDE3",
"= c #027CC64FFDD3",
"- c #0340C75DFE59",
"; c #02F4C77FFE95",
": c #0676C4ADFD77",
"> c #05BAC5F1FD63",
", c #05D2C5DDFDFB",
"< c #03FAC6E7FDA3",
"1 c #0406C791FE47",
"2 c #052FC7EFFE2E",
"3 c #0634C659FE2F",
"4 c #063AC7B1FE67",
"5 c #03BEC835FEF5",
"6 c #0894C1BBFA9D",
"7 c #0736C8F9FD0B",
"8 c #0614C881FE5B",
"9 c #0596C8D3FEBD",
"0 c #0690C957FEF3",
"q c #0632C9E5FFA9",
"w c #0759CA8AFFCC",
"e c #07CEC955FEFD",
"r c #0950CAE7FFBA",
"t c #0A24CAC1FF85",
"y c #09EECBB7FFE2",
"u c #0CD2CC49FFBF",
"i c #0C50CCD1FFFF",
"p c #0EE0CDE5FFFD",
"a c #106ACE29FFDF",
"s c #1046CE6DFFFF",
"d c #0EC0D0C7FFED",
"f c None",
/* pixels */
"ffffffffffffffff",
"ffffffffffffffff",
"ffffffffffffffff",
"ffffffffffffffff",
"ffffffffffffffff",
"f7fffffffffd@fff",
"f rtffffffffffff",
"w%*#3$uyaOf29%X+",
"<56fsff>.,i1;&fq",
"0fwry:4oe+=28-sp",
"ffffffffffffffff",
"ffffffffffffffff",
"ffffffffffffffff",
"ffffffffffffffff",
"ffffffffffffffff",
"ffffffffffffffff"
};
