/* XPM */
static char *result[] = {
/* columns rows colors chars-per-pixel */
"32 32 106 2 ",
"   c #0230B823F71F",
".  c #0526B801F79F",
"X  c #0000B9C5F101",
"o  c #0000BA9DF1DB",
"O  c #0000BC01F603",
"+  c #0012BBBDF74B",
"@  c #0023BD76F55B",
"#  c #0016BE1DF643",
"$  c #003DBC87F6B1",
"%  c #009ABCEBF783",
"&  c #0000BEA1F76F",
"*  c #0056BF59F80D",
"=  c #00F4B7A7F917",
"-  c #00FEB9C5F93B",
";  c #0064BC2BFA9D",
":  c #0000BDCDF8BF",
">  c #0000BFE3F925",
",  c #0000BDBBFB3B",
"<  c #0140BDC9FBA1",
"1  c #0AD0BEE7FA31",
"2  c #002AC121F81F",
"3  c #0051C0D0F927",
"4  c #0096C157F973",
"5  c #0132C241FA2F",
"6  c #0250C0BBFB5D",
"7  c #00C8C305FB23",
"8  c #0000C3C5FC43",
"9  c #013CC3FFFBEB",
"0  c #01F0C40FFB87",
"q  c #0538C0FFFB09",
"w  c #0574C241FBF7",
"e  c #06ACC22BFA93",
"r  c #0148C57DFB5B",
"t  c #02D4C4F1FC33",
"y  c #01B0C1FBFC99",
"u  c #0508C3D9FDA1",
"i  c #0052C4B0FD0A",
"p  c #011CC52CFD01",
"a  c #004CC53FFD7F",
"s  c #010FC5DBFDC5",
"d  c #01D2C4FBFCBD",
"f  c #0234C59EFD07",
"g  c #0341C5FEFD1C",
"h  c #02D0C6D9FDFA",
"j  c #0156C729FE93",
"k  c #01BAC743FED9",
"l  c #02D0C695FF25",
"z  c #01D7C756FEF8",
"x  c #02D4C7CDFEEB",
"c  c #057CC48DFD3F",
"v  c #06D8C635FE37",
"b  c #044AC681FD2F",
"n  c #049EC695FD2D",
"m  c #045EC71FFDAF",
"M  c #0536C78AFDD0",
"N  c #0644C7B3FD8F",
"B  c #0510C6FDFEF5",
"V  c #0ADCC195FB85",
"C  c #0C46C269FB25",
"Z  c #0BACC34DFC35",
"A  c #0A3EC68DFDCF",
"S  c #0DDAC49DFC99",
"D  c #0EDEC773FDFD",
"F  c #0308C869FF69",
"G  c #0210C88FFFE5",
"H  c #031EC8CAFFCC",
"J  c #043BC893FF25",
"K  c #04B4C8CEFF45",
"L  c #0566C95BFF75",
"P  c #0388C8F9FFCB",
"I  c #04E1C991FFCB",
"U  c #059EC931FF3D",
"Y  c #05EFCA20FFF1",
"T  c #062CCB95FF17",
"R  c #0670CA4BFFFD",
"E  c #0740CAA6FFFE",
"W  c #07A0CA07FF33",
"Q  c #0B80C991FF0F",
"!  c #07EBCAEDFFFA",
"~  c #08C9CB20FFE8",
"^  c #093CCB80FFFD",
"/  c #0AD1CB22FF5B",
"(  c #0AA8CB6DFF57",
")  c #09A8CA97FF83",
"_  c #0A01CBCAFFFE",
"`  c #0AF3CC1EFFEB",
"'  c #0E2CC961FE6B",
"]  c #0C32CB93FF73",
"[  c #0ECCCAE5FEF7",
"{  c #0934CD57FFD3",
"}  c #0B73CC72FFFE",
"|  c #0BFCCCADFFFF",
" . c #0CE9CD00FFFF",
".. c #0DDFCD88FFFF",
"X. c #0F38CE07FFFF",
"o. c #0FE0C8C3FDE1",
"O. c #104ACB49FEDF",
"+. c #0FD6CE17FFED",
"@. c #1019CE72FFFF",
"#. c #1227CF1BFFEC",
"$. c #1329CF9EFFFE",
"%. c #141CCFF2FFFE",
"&. c #1134D1B5FFFF",
"*. c #1080D2BBFFFD",
"=. c #12F4D371FFFF",
"-. c None",
/* pixels */
"-.-.-.-.-.-.-.-.-.-.-.-.-.-.-.-.-.-.-.-.-.-.-.-.-.-.-.-.-.-.-.-.",
"-.-.-.-.-.-.-.-.-.-.-.-.-.-.-.-.-.-.-.-.-.-.-.-.-.-.-.-.-.-.-.-.",
"-.-.-.-.-.-.-.-.-.-.-.-.-.-.-.-.-.-.-.-.-.-.-.-.-.-.-.-.-.-.-.-.",
"-.-.-.-.-.-.-.-.-.-.-.-.-.-.-.-.-.-.-.-.-.-.-.-.-.-.-.-.-.-.-.-.",
"-.-.-.-.-.-.-.-.-.-.-.-.-.-.-.-.-.-.-.-.-.-.-.-.-.-.-.-.-.-.-.-.",
"-.-.-.-.-.-.-.-.-.-.-.-.-.-.-.-.-.-.-.-.-.-.-.-.-.-.-.-.-.-.-.-.",
"-.-.-.-.-.-.-.-.-.-.-.-.-.-.-.-.-.-.-.-.-.-.-.-.-.-.-.-.-.-.-.-.",
"-.-.-.-.-.-.-.-.-.-.-.-.-.-.-.-.-.-.-.-.-.-.-.-.-.-.-.-.-.-.-.-.",
"-.-.-.-.-.-.-.-.-.-.-.-.-.-.-.-.-.-.-.-.-.-.-.-.-.-.-.-.-.-.-.-.",
"-.-.-.-.-.-.-.-.-.-.-.-.-.-.-.-.-.-.-.-.-.-.-.-.-.-.-.-.-.-.-.-.",
"-.-.&.T -.-.-.-.-.-.-.-.-.-.-.-.-.-.-.-.-.-.-.=.{ -.-.-.-.-.-.-.",
"-.*.U # -.-.-.-.-.-.-.-.-.-.-.-.-.-.-.-.-.-.-.~ 4 o -.-.-.-.-.-.",
"-.-.2 X -. ...-.-.-.-.-.-.-.-.-.-.-.-.-.-.-.-.r o -.-.-.-.-.-.-.",
"-.-.7 -.-.E ! -.-.-.-.` R -.-.-.-.-.3 -.-.-.-.h @ -.L @ -.^ $.-.",
"-.^ 5 j F G l < -.Z V '  .! -.-.%.| 3 e ~ -.} 9 f -.h 0 3 ) o./ ",
"-.K m -.w 8 , y B z s = O.X.-.` %.] * C $.-.! g k ^ f h + ; : $ ",
"-.f I -.S $ & -...} ~ -.-.-.-.` 1 -.-.A @.#.J M -.Y b p -.I P k ",
"-.t x -.+.. -.-.%.%.D -.-.-.-.q O -.-.H E _ d K -.x M a -.Y _ _ ",
"x N s -.^ ` Q -. ...[ - J  .( % s v   > a -.n x -.g L -.-. .` #.",
"W ~ i -.H I R ! -.F I u 6 K -.p E @.#.c -.L ( s -.( x -.-.$.@.-.",
"-.-.-.-.-.-.-.-.-.-.-.-.-.-.-.-.-.%.-.-.-.-.-.-.-.-.-.-.-.-.-.-.",
"-.-.-.-.-.-.-.-.-.-.-.-.-.-.-.-.-.-.-.-.-.-.-.-.-.-.-.-.-.-.-.-.",
"-.-.-.-.-.-.-.-.-.-.-.-.-.-.-.-.-.-.-.-.-.-.-.-.-.-.-.-.-.-.-.-.",
"-.-.-.-.-.-.-.-.-.-.-.-.-.-.-.-.-.-.-.-.-.-.-.-.-.-.-.-.-.-.-.-.",
"-.-.-.-.-.-.-.-.-.-.-.-.-.-.-.-.-.-.-.-.-.-.-.-.-.-.-.-.-.-.-.-.",
"-.-.-.-.-.-.-.-.-.-.-.-.-.-.-.-.-.-.-.-.-.-.-.-.-.-.-.-.-.-.-.-.",
"-.-.-.-.-.-.-.-.-.-.-.-.-.-.-.-.-.-.-.-.-.-.-.-.-.-.-.-.-.-.-.-.",
"-.-.-.-.-.-.-.-.-.-.-.-.-.-.-.-.-.-.-.-.-.-.-.-.-.-.-.-.-.-.-.-.",
"-.-.-.-.-.-.-.-.-.-.-.-.-.-.-.-.-.-.-.-.-.-.-.-.-.-.-.-.-.-.-.-.",
"-.-.-.-.-.-.-.-.-.-.-.-.-.-.-.-.-.-.-.-.-.-.-.-.-.-.-.-.-.-.-.-.",
"-.-.-.-.-.-.-.-.-.-.-.-.-.-.-.-.-.-.-.-.-.-.-.-.-.-.-.-.-.-.-.-.",
"-.-.-.-.-.-.-.-.-.-.-.-.-.-.-.-.-.-.-.-.-.-.-.-.-.-.-.-.-.-.-.-."
};
