/* XPM */
static char *result[] = {
/* columns rows colors chars-per-pixel */
"32 32 234 2 ",
"   c #03856805FFFF",
".  c #00DC764FFFFF",
"X  c #2F5A7F1CFFFF",
"o  c #2884669CFFFF",
"O  c #0B3A8519B2E3",
"+  c #375A946EBD75",
"@  c #2D38905FB689",
"#  c #46FE9EF5BAE7",
"$  c #682A9D97BEB7",
"%  c #1922948BC4F7",
"&  c #091CAB5AD7AC",
"*  c #1782AB21D783",
"=  c #1D3EB253D49B",
"-  c #31E4A391C935",
";  c #27E6A9C9D8D1",
":  c #00148C8CFFFF",
">  c #0C268E13FFFB",
",  c #001192CCFFFF",
"<  c #01619BBDFFF8",
"1  c #0AC1984BFFFF",
"2  c #1211936AFF00",
"3  c #256F9EBFFE6E",
"4  c #37E59634FFFE",
"5  c #32D0856AFFBC",
"6  c #0133A550FFFE",
"7  c #018AACB0FF36",
"8  c #09D6AAC3FC8A",
"9  c #14F3AB42FD28",
"0  c #026BB320FFA2",
"q  c #034BBC79FFE1",
"w  c #1804B321FBA6",
"e  c #171EB901FC4A",
"r  c #04C6BCA7E88D",
"t  c #2EB2B0D1E083",
"y  c #37A5A8F0FEBC",
"u  c #2A31BE7EFE63",
"i  c #1FA6B513F893",
"p  c #3A41BDA6F909",
"a  c #2ABFB018F128",
"s  c #542E9FC7C659",
"d  c #61389B39C2A9",
"f  c #5823AB99DA6F",
"g  c #567EB546D8C0",
"h  c #5520AEDBC623",
"j  c #7C88A5E1C47B",
"k  c #6301B9BFD2BD",
"l  c #4996BCDFE4E3",
"z  c #4F46ABABFE21",
"x  c #56CFB852FD0C",
"c  c #7AB2BFE1E4EE",
"v  c #6230AAA2FF7C",
"b  c #71D6AB8DFFE9",
"n  c #7D51BA7EFF3C",
"m  c #1875C729ED57",
"M  c #01B9C8B4FFE4",
"N  c #1952D659FEC2",
"B  c #1BFEC521FF21",
"V  c #290EC438E9D5",
"C  c #38EEC936EC33",
"Z  c #3A1DC5ECFD71",
"A  c #292CD168F475",
"S  c #31B7CDE1F998",
"D  c #2928E62FFE71",
"F  c #40C1C944EAC2",
"G  c #5D0BCCBEEAFD",
"H  c #5667C788E70E",
"J  c #47A7C34CFA9C",
"K  c #5573CA09FCCA",
"L  c #5B99C96AFA7F",
"P  c #4925D7AFF9F7",
"I  c #5CBED1E1F08D",
"U  c #68FDCB50E933",
"Y  c #75CBCFA6EC41",
"T  c #786FCF60E9B4",
"R  c #6732D1AFEE7E",
"E  c #7C66D40BEE55",
"W  c #7704D179EE0F",
"Q  c #6368CC57FCAB",
"!  c #68FDCAE5F8BE",
"~  c #6720D46EFAA3",
"^  c #72D6D6CDF3AE",
"/  c #7973DA8EF943",
"(  c #7CA8CA61FFDF",
")  c #7654E1BDF9E3",
"_  c #879C9D75A8BF",
"`  c #962FAED4B9FE",
"'  c #9E13B057BBC9",
"]  c #9877A527AE71",
"[  c #A198A419ACEC",
"{  c #AAF2A9B2B49A",
"}  c #B4C3B32FBAC8",
"|  c #80EFAB13CFEB",
" . c #9A13B654C387",
".. c #869EB61ADBDC",
"X. c #95B4BCA3DD07",
"o. c #A8CABC54CA7A",
"O. c #BEBFBF71CAC3",
"+. c #80E9BD3CE250",
"@. c #8D3FBC51FFFF",
"#. c #9759BE13F184",
"$. c #A56EBF13E19F",
"%. c #B3F7BF91E1ED",
"&. c #A763BFE7FFFD",
"*. c #C73FBDD9C909",
"=. c #AFB1C0E1CED5",
"-. c #B6A0C40ACE7E",
";. c #B8BDC2CFCB41",
":. c #AAC0CA00D72E",
">. c #AD0ECD58DDFD",
",. c #BB4DCAFBD574",
"<. c #B3B0CEDCDB12",
"1. c #B698C71CD27A",
"2. c #BC25D3D6DF28",
"3. c #B262D13BDE88",
"4. c #81B8C246E4EB",
"5. c #8A78C867E789",
"6. c #9C65C38FE501",
"7. c #9BF1CD4EE9EA",
"8. c #9823C5C9E6A4",
"9. c #86A2D4FAEE20",
"0. c #9BD7D51CEDF5",
"q. c #982BD693ECE1",
"w. c #8170CA9CFD5B",
"e. c #820AD733F2A4",
"r. c #81BFD352FE8D",
"t. c #882BD94DF6A6",
"y. c #9AEEDCD2F235",
"u. c #9BC5DC32FD60",
"i. c #9448DDEAFAE1",
"p. c #9711CE59FE31",
"a. c #A430C3C0E44C",
"s. c #A3C6C8A2E822",
"d. c #ADBCCC6FE5C2",
"f. c #AB22CCE2EA00",
"g. c #A9E4C69EE560",
"h. c #BBC7CBDAE698",
"j. c #B3F0CDCEE9F6",
"k. c #BD6DCE10E8DB",
"l. c #B5ADC630E4D1",
"z. c #A280D43FEDBB",
"x. c #ADCDD3E6EC75",
"c. c #ACEDDA51ED72",
"v. c #A711D933EFD1",
"b. c #BA6CD4F0E45D",
"n. c #B2A6D4C3EBC4",
"m. c #BCD3D511EC14",
"M. c #B533DB2DEEC6",
"N. c #BD3EDBA6F015",
"B. c #B62ECC35FD18",
"V. c #A8CADDD8F92A",
"C. c #B98ED8F0FAF5",
"Z. c #A4C3CDE3FFFF",
"A. c #8796E4C5F99F",
"S. c #9582E128F5FC",
"D. c #9807E556FB7B",
"F. c #AB9AE2F6F531",
"G. c #A29BE2F0FF49",
"H. c #AC60E5CAFEC4",
"J. c #A5B7E84CF8A0",
"K. c #BC8AE402F43E",
"L. c #B77DE891FAAA",
"P. c #C779C5D9CEF1",
"I. c #C456CC4FD5D3",
"U. c #CCA7CC85D44E",
"Y. c #C187CFD7DB8B",
"T. c #D83ECD88D3F0",
"R. c #CBF1D339DC61",
"E. c #CE17D053D849",
"W. c #D5A2D13ED7D3",
"Q. c #D3D0D49FDBD8",
"!. c #DC3FD8B6DE11",
"~. c #E589D98CDD07",
"^. c #C25FCCA8E726",
"/. c #C8CDCA17E73E",
"(. c #D40CCBBBE657",
"). c #DB6ACDC7E621",
"_. c #D695C751E36B",
"`. c #C6C9D3E4E47C",
"'. c #C48EDB54E6DC",
"]. c #CCBBDA89E417",
"[. c #C4FED295EA8E",
"{. c #CCEED4EAEADE",
"}. c #C507DBB2EDE3",
"|. c #CBB9DCB6EC9D",
" X c #D4AFDBDAE6F4",
".X c #D54CDBEAEAA8",
"XX c #DB54D894E8D9",
"oX c #CAFFDD99F2E7",
"OX c #C763D268FF8E",
"+X c #C372DCF9FFEE",
"@X c #C8CAD9ACFB08",
"#X c #DD18DD1AFE1B",
"$X c #D619DB08F7B1",
"%X c #E321CE17E526",
"&X c #E89ED952E9BE",
"*X c #F177E021EFA9",
"=X c #C7D7E113EDEF",
"-X c #CD11E2ECEE9B",
";X c #D5CAE2EEEC97",
":X c #DB4EE3D7ECE8",
">X c #C57DE317F306",
",X c #CD12E4B4F395",
"<X c #CC0AE4AFFD7B",
"1X c #C60AEB6AFBF8",
"2X c #CCB2ED58FCDC",
"3X c #C79CE890F97E",
"4X c #D5CAE6A9F316",
"5X c #DA38E735F373",
"6X c #D514E94BF5DD",
"7X c #DCE9EA76F43B",
"8X c #D2F6E4F9FFF1",
"9X c #D6BBEB50FEC0",
"0X c #DE19ED21FF22",
"qX c #DC18E1E9FFE1",
"wX c #DC56F1ABFD84",
"eX c #D22DF10DFF19",
"rX c #E2DFE462EC25",
"tX c #E942E693ED3C",
"yX c #E49AEC6CF4EE",
"uX c #EC16EEF7F600",
"iX c #E476ED1EFF7F",
"pX c #EA9BED1CFE9A",
"aX c #E76BE4DDF6C5",
"sX c #F5D6E572F36A",
"dX c #ED63F0BBF708",
"fX c #E54DF3D9FDEF",
"gX c #ED0EF3B3FF05",
"hX c #EE7FF90DFF63",
"jX c #F514F278F509",
"kX c #F4B8F699FF5B",
"lX c #F600F997FFA7",
"zX c #FE38FEA8FFC4",
"xX c #F227EB95ED2D",
"cX c None",
/* pixels */
"cXcXcXcXcXcXcXcXcXcXcXcXX.>.d./.).).(.^.cXcXcXcXcXcXcXcXcXcXcXcX",
"cXcXcXcXcXcXcXcXcXj ..6.s.j.m.[.).%XW.%.a.6.cXcXcXcXcXcXcXcXcXcX",
"cXcXcXcXcXcXcXcXj #.#.6.d.N.}..X).%X_.h.f.6.X.g.cXcXcXcXcXcXcXcX",
"cXcXcXcXcXcX+ f c $.a.f.j.}.,X:X&X&X).^.d.d.a.a.a.n.cXcXcXcXcXcX",
"cXcXcXcXcXs f f +.a.j.m.[.N.=X;XaX&X).^.b.j.h.l.8.4.7.cXcXcXcXcX",
"cXcXcXcXd +.+.T c s.k.}.oX}.,X5X*X&X).^.l.h.[.x.z.0.4.7.cXcXcXcX",
"cXcXcX$ 8.8.n.7.7.5.j.oXoX5XgXzXzXaX#X(.`./.h.n.v.v.4.5.n.cXcXcX",
"cXcXcXq.>X9X5XN.z.0.z.oXiXlXzXzXzXpX#XOXB.{.n.f.c.=X,XN.x.,XcXcX",
"cXcX- y.hXyXyXyXyX,XC.#XpXkXlXzXzXfX8X#XOXn ,X6X7X7X7X5Xm.k.cXcX",
"cXO & Y fXwX6X6XdX#XaXiX0XiXgXzXzX0XC.8X1X9X<XdX:X:XyXaX^.g..XcX",
"cX% * t y.6X3X,X#XpX$XkXgXC.iXzXzX8XB.fXkX+X0XeXyXrXtXXXl.$.m.cX",
"cXt t l W L.6X<XH.H.0XgXlX+X@XzXzX$XqXlXkXlX0X0XwXuXyX.X/./.(.cX",
"@ l U Y t.v.,X2XL.L.hXzXfXiXOXzXzX$XpXkXzXzXgXiXfXjXsXtX&X&X).cX",
"- e.R / 9.q.w./ H.eXkXlXgXpXkXzXzXkXpXlXzXlXgXiX1X<XsXsX*X.XoXoX",
"g K.^ R ^ S.y , J D.J lXlXzXzXzXzXzXfXZ iX8XV.( Z / 5X,X1XF.t.S.",
"= C A P A.A.3 < q / ! u u.1XG.zX1X2X0XL H.r.Q 6 0 S F.J.S.^ I R ",
"& m A ) D.D.u 7 M Q Q 7 Q 9 L Q Z w ^ J 8 p p 3 6 S q.9.W G C F ",
"& C ) D.J.L.P 7 q L ~ 8 D.S r.J K w p K w D.L > : J c.9.E H C F ",
"k ) ) S.L.K.^ q w r.p.Q V.r./ wXQ i.G.u.r.u.r., < E =Xx.T H C G ",
"h E A.D.F.M.N.q 6 :     5 4 iXzXzXfXn z 1 6 8 , 0 M.9.U H T G U ",
"cX^ e.S.M.M.7XK q 0 , .   X 9XzXzX0Xv 2 6 7 e 7 K 7X=Xc.T e.c.cX",
"cXk 9.e.E S.K.3XA M q <   o B.zXzXC.z 3 6 q q 2 4XuX7X;X=X=X>XcX",
"cX# V m V E N.7XF.D N B y 5 &.zXzXZ.z x y 9 9 L.dXdXyXyX4X6X-XcX",
"cXcX& m F 0.-X|.;XS.) D.( @.B.zXlX@.4 , , w K.uXdXuXyX7X;X-XcXcX",
"cXcXcX& z.=X}.|.-X'.'.-X9X+X@XlXfX&.b v U ;XtXtXtXtXrX;X;XcXcXcX",
"cXcXcX+ 6.d.b.'.'.2.2.2.Y.XXXXlXpX$X/.R.rXrX:XrX;X;X;X;X].cXcXcX",
"cXcXcXcXj d.b.=X2.b.2.<.E.T.~.jXjX~.W.E.W.!.:X XR.R.-XR.cXcXcXcX",
"cXcXcXcXcX .3.>.<.<.<.<.I.W.~.xXxXT.U.,.I.E.Q.;X-XR.,.cXcXcXcXcX",
"cXcXcXcXcXcX` :.>.3.3.1.U.T.!.&X~.T.U.O.-.I.R.R.R.1.cXcXcXcXcXcX",
"cXcXcXcXcXcXcXcX .:.:.,.E.W.rXW.U.T.P.o.=.,.I.;.cXcXcXcXcXcXcXcX",
"cXcXcXcXcXcXcXcXcX_ ` -.I.W.W.T.P.*.;.o.o.' ] cXcXcXcXcXcXcXcXcX",
"cXcXcXcXcXcXcXcXcXcXcXcX[ } } } { { [ _ cXcXcXcXcXcXcXcXcXcXcXcX"
};
