/* XPM */
static char *result[] = {
/* columns rows colors chars-per-pixel */
"64 64 248 2 ",
"   c #0E8E7E98A980",
".  c #14685CADFFFF",
"X  c #029C6726FFFF",
"o  c #00547AFCFFFF",
"O  c #00AA73E0FFFF",
"+  c #147C6186FFFF",
"@  c #30E77347FFEE",
"#  c #420479A4FFD7",
"$  c #047A9518B888",
"%  c #13328B96B168",
"&  c #2BA68D7CB1A5",
"*  c #7BBB91D69D98",
"=  c #52009126B1A0",
"-  c #76479780B084",
";  c #58E19308AAAA",
":  c #289C9AA0C58F",
">  c #1831A831DD1F",
",  c #04CFA9B4D8EB",
"<  c #2A9DAC30DADA",
"1  c #006B85CBFFFF",
"2  c #004A8CB6FFFF",
"3  c #0150940EFFF0",
"4  c #009A9C41FFFF",
"5  c #0DC99724FED0",
"6  c #1901967AFFFF",
"7  c #00949F13EDED",
"8  c #284F971AFFFF",
"9  c #37509BD6FFFE",
"0  c #0331BB70E71F",
"q  c #006FA509F34D",
"w  c #00AFAAA0F6AA",
"e  c #0129A4BEFFF8",
"r  c #012FAD05FE10",
"t  c #0940A444F85E",
"y  c #193BA903FD11",
"u  c #0181B2B2FF44",
"i  c #0B1BB4B7FD59",
"p  c #01E8BB18FFF8",
"a  c #0B93BBB5FEAB",
"s  c #16E8B7E1FE8F",
"d  c #0F6DB053EA2B",
"f  c #2A95B3C4E1A4",
"g  c #3809B831E257",
"h  c #389DA294FFCB",
"j  c #2543BA02FEDF",
"k  c #3832BCDBF96A",
"l  c #2388A975FB67",
"z  c #10B19E38D3D1",
"x  c #660F9CEEC1A3",
"c  c #5E8DB72DDA3F",
"v  c #50A4ACB9D3CF",
"b  c #66EDB4AADD28",
"n  c #7295AC0CD1F8",
"m  c #46619CBFFFDB",
"M  c #505A94B6FFFF",
"N  c #4869BDCEE524",
"B  c #48ACA98AFDB9",
"V  c #494BB90FFCC3",
"C  c #55B0B664FC83",
"Z  c #56D2A075FF15",
"A  c #797DBCF4E295",
"S  c #6B27AEFEFFFE",
"D  c #6FF9B3DCF9C4",
"F  c #614C9DD9E6D9",
"G  c #16AEC459EB1B",
"H  c #017DC4E7FFE8",
"J  c #01F5CB3DFFBD",
"K  c #0D3CCA00FAD9",
"L  c #16F0CCA4F812",
"P  c #01FDD5DEFFCC",
"I  c #0C4CC685ECEC",
"U  c #281DC4E7E9FB",
"Y  c #393BC5FDE966",
"T  c #3796C470FDF0",
"R  c #25A8D548F9CC",
"E  c #3880D2F4F6B5",
"W  c #2811C6BFFE80",
"Q  c #0CFAE2DAFF68",
"!  c #281BE8D5FF24",
"~  c #4887C8A3EA12",
"^  c #59A8C912E991",
"/  c #4A1CC320FAEC",
"(  c #564BCA66FCCF",
")  c #4996D28BF57F",
"_  c #59CED5E6F28D",
"`  c #5599D588F00F",
"'  c #6826CBCFE8FE",
"]  c #783ACA5CE8A7",
"[  c #65F9D1F4EE71",
"{  c #7781D3ECEDB0",
"}  c #6816CAB6FB97",
"|  c #7798CC27FA2E",
" . c #6872D63FF7C0",
".. c #778DD85DF6E0",
"X. c #4300E307FBC8",
"o. c #7995E32CF9A3",
"O. c #8F6C933A9C96",
"+. c #8F139A3FA3B4",
"@. c #9389A864B403",
"#. c #A940B00CB96C",
"$. c #A0DB9CFDA36D",
"%. c #85D0B58FDAE1",
"&. c #93FBBC68DE1D",
"*. c #8FE2B182CC3E",
"=. c #A964BC50C9BD",
"-. c #B913BA75C51C",
";. c #A811BC4CDFDC",
":. c #865DBC21E1BF",
">. c #97C3BE5EE1BC",
",. c #8784B996FE98",
"<. c #8E89B0CCFFED",
"1. c #ABBEBF55E1A6",
"2. c #A2DFBF2DE1A1",
"3. c #B069BCA4F226",
"4. c #C675BE25C948",
"5. c #B57BC2D4CDF0",
"6. c #AD40CD6ADB2A",
"7. c #AA16C7B7D598",
"8. c #B298CF06DB8B",
"9. c #B9ADCA5ED562",
"0. c #B449D1DADE78",
"q. c #BC96D305DE27",
"w. c #ADA8C1D6CF10",
"e. c #878EC7B1E7E5",
"r. c #94B3C286E576",
"t. c #9CF1C465E5E2",
"y. c #9BB6CD4FEA39",
"u. c #98DECA99E8DD",
"i. c #8689D3AAEC24",
"p. c #94ADD5BDEDBC",
"a. c #9C53D48EECDB",
"s. c #9831D8A5ECED",
"d. c #88A7C55DFA5D",
"f. c #96E4CA33FBA0",
"g. c #865EDA62F70E",
"h. c #9BEEDC0DF353",
"j. c #9654DACCF795",
"k. c #A43EC489E4F5",
"l. c #ABCBC4F2E50C",
"z. c #ABDDCB2FE67A",
"x. c #A3B8CBE4E993",
"c. c #ACC2CCBFE9CC",
"v. c #A649C97BE83A",
"b. c #B435CC38E6BF",
"n. c #BC7ECC0DE67A",
"m. c #B7E7C84FE660",
"M. c #A3CFD3EAED2F",
"N. c #AB3CD54EED02",
"B. c #AD6DD936EE9D",
"V. c #B4FED319E39C",
"C. c #BCF5D6D2E2FC",
"Z. c #B673D535EBC0",
"A. c #BCA9D4E6EB7D",
"S. c #B455DB2DEDA9",
"D. c #BCE7DB72ED9E",
"F. c #B8E1D939E621",
"G. c #A7D9C79FFFA9",
"H. c #B698C990FC35",
"J. c #A90FDCBAF5A7",
"K. c #B433D457FF84",
"L. c #B98EDBC2F844",
"P. c #8966E42CF8D2",
"I. c #9379E505FC7F",
"U. c #9AB5E3FDF8D8",
"Y. c #AD15E5A6F6A4",
"T. c #A6E7E721FBFD",
"R. c #BD0AE3C7F3C0",
"E. c #B3D2EB9BFB68",
"W. c #B94CE8D5FBDE",
"Q. c #9BA5C0D3DE8F",
"!. c #C61AC3F6CCFE",
"~. c #C432CC1AD58F",
"^. c #CC4BCCEDD4ED",
"/. c #C388CD7FD73A",
"(. c #D44DCD79D442",
"). c #DC2CCDFDD3CE",
"_. c #CCB8D306DB68",
"`. c #C628D29FDC0B",
"'. c #D42ED368DA6D",
"]. c #DBBFD506DAB1",
"[. c #DA6ED501DAA0",
"{. c #D570C97FCFF0",
"}. c #E49BD7B4DB5B",
"|. c #C3E5CD76E734",
" X c #C80CCB1CE6E4",
".X c #D490CBFEE647",
"XX c #DD04CD79E5C5",
"oX c #D456C784E424",
"OX c #C34AD604E2E7",
"+X c #CC75DAA3E46A",
"@X c #C404D48AEBE7",
"#X c #C505DC94ED32",
"$X c #CC30DCEAEC49",
"%X c #C8D3D72DE6E9",
"&X c #D487DCCCE555",
"*X c #D359D5AAEAA3",
"=X c #D219DE5DEB66",
"-X c #DADDDCDFEBAB",
";X c #DB2FD6C0E6C9",
":X c #C5E8C83DFB98",
">X c #C3ABDD08FFDD",
",X c #C9B5DA2BF878",
"<X c #D7B5D904FDE2",
"1X c #D631CED5FF71",
"2X c #E209CCFAE4A1",
"3X c #EC78D697E9C5",
"4X c #ECC3DE29EE02",
"5X c #E640D8FCE7C2",
"6X c #E300DE06FF63",
"7X c #CC8EE30FEEA6",
"8X c #C5EEE134EE35",
"9X c #D50EE34EED65",
"0X c #DC2BE37CECF2",
"qX c #DF16E0D0E75B",
"wX c #C58EE3EBF2EA",
"eX c #CC6FE424F260",
"rX c #CC5FE4D1FFE5",
"tX c #CBDDED33FE78",
"yX c #C707E9F3FB70",
"uX c #D40CE58FF307",
"iX c #DBB6E694F207",
"pX c #D4DDEA2DF5C5",
"aX c #DCBEEAE7F4FB",
"sX c #D462E493FF5A",
"dX c #DC3BE4DDFE4E",
"fX c #D5E5EB44FF39",
"gX c #DC8EEC7BFEC4",
"hX c #CC15F17CFF53",
"jX c #DCF7F2D1FDEC",
"kX c #D4B5F2BEFF7C",
"lX c #E35BE583ED3C",
"zX c #E925E4C0E8F7",
"xX c #F275E78EECBC",
"cX c #E4BCEC7EF4AD",
"vX c #EC0BEE57F50B",
"bX c #E51BED7AFF3A",
"nX c #EBEEED83FF6B",
"mX c #E716E556F9F0",
"MX c #F6E9E7F7F415",
"NX c #EDDDF116F6DD",
"BX c #E4B2F3BBFDE6",
"VX c #ECB1F421FE40",
"CX c #EAD9F7A6FE2D",
"ZX c #F33BF59EFEB5",
"AX c #F660F9F6FF9B",
"SX c #FE33FEA4FFC7",
"DX c #F3D1F39FF7C9",
"FX c None",
/* pixels */
"FXFXFXFXFXFXFXFXFXFXFXFXFXFXFXFXFXFXFXFXFXFXFXFXFXFXFXFX7.k.m.%X.XXX2XXXXXFXFXFXFXFXFXFXFXFXFXFXFXFXFXFXFXFXFXFXFXFXFXFXFXFXFXFX",
"FXFXFXFXFXFXFXFXFXFXFXFXFXFXFXFXFXFXFXFXFXFXFX*.&.&.z.V.V.b.A..X*XXXXXXX.XoX Xn.n.FXFXFXFXFXFXFXFXFXFXFXFXFXFXFXFXFXFXFXFXFXFXFX",
"FXFXFXFXFXFXFXFXFXFXFXFXFXFXFXFXFXFXFXFX*.%.&.2.t.k.z.A.A.n.|.*XXXXX2X2XoXoX1.1.1.k.z.Z.FXFXFXFXFXFXFXFXFXFXFXFXFXFXFXFXFXFXFXFX",
"FXFXFXFXFXFXFXFXFXFXFXFXFXFXFXFXFXFXn %.%.r.t.t.v.x.Z.V.F.A.@X*X*X2X2X2X2XoXm.1.2.k.&.>.z.Z.FXFXFXFXFXFXFXFXFXFXFXFXFXFXFXFXFXFX",
"FXFXFXFXFXFXFXFXFXFXFXFXFXFXFXFX- n &.>.>.r.f.2.x.Z.Z.A.$XA.%X;X*XXX2X5X2XoX X1.x.v.t.>.&.&.l.@XFXFXFXFXFXFXFXFXFXFXFXFXFXFXFXFX",
"FXFXFXFXFXFXFXFXFXFXFXFXFXFX= x %.>.&.>.>.>.>.v.c.c.S.#X#X#X=X-X5X5X2X2X2XoX Xm.x.x.v.t.>.&.>.>.A.=XFXFXFXFXFXFXFXFXFXFXFXFXFXFX",
"FXFXFXFXFXFXFXFXFXFXFXFXFX  v b :.:.r.t.t.t.k.v.m.A.A.$X#X#XiX0X5X-X3X2X2X.X Xm.z.z.v.k.k.>.2.2.1.l.#XFXFXFXFXFXFXFXFXFXFXFXFXFX",
"FXFXFXFXFXFXFXFXFXFXFXFX& v v v n :.>.k.k.G.c.c.c.A.L.,XeXpXuXiX6X4X4X3X3X.X|.b.z.c.b.A.b.l.k.1.2.>.r.Z.FXFXFXFXFXFXFXFXFXFXFXFX",
"FXFXFXFXFXFXFXFXFXFXFX: v v c F e.:.k.1.c.c.c.A.#X@XA.L.wX8X7XlX4X5X3X2X2X.X%XA.@Xb.b.A.A.n.b.b.k.>.:.:.y.wXFXFXFXFXFXFXFXFXFXFX",
"FXFXFXFXFXFXFXFXFX- x b D b c c b :.>.c.3.A.#XA.@XA.@XZ.7XwXpXcXlX4X3X3X2X X|.n.m.m.OXn.A.|.n.l.r.e.e.A A M.uXFXFXFXFXFXFXFXFXFX",
"FXFXFXFXFXFXFXFXFXx A A A A c e.A A r.n.|.@XA.#X,X@X#X#X7X7XpX0X4X3X3X3XXXoX|.A.m.7.b.@X@X|.A.v.N.y.p.] e.e.x.eXFXFXFXFXFXFXFXFX",
"FXFXFXFXFXFXFXFX= A %.>.e.f.A A A e.y.x.n.n.,X$X$X,X$X#XeXpX7XNXMXMX4X3X2X X X|.m.m.m.n.|.%Xn.x.y.Y.eXp.e.A b y.tXFXFXFXFXFXFXFX",
"FXFXFXFXFXFXFX= A A :.r.x.x.u.e.h.y.:.y.c.@X$X#X,X,XiXuXpXcXVXSXSXDXMX4X;X;X@X|.|.|.|.n. Xn.Z.D.a.Y.wXa.e.A b b N.FXFXFXFXFXFXFX",
"FXFXFXFXFXFX= &.eXN.e.y.S.Z.c.M.M.e.e.e.x.n.*X=X=X$XuXbXSXAXSXSXSXSXVXbXdXdX-X=X X%X@X X Xb.N.B.M.M.N.p.e.] x.wXu.wXFXFXFXFXFXFX",
"FXFXFXFXFX= b e.M.aXVXeXpXL.,Xc.a.i.i.M.y.Z.$X,XgXnXZXAXSXSXSXSXSXSXZXmX6X,X:XG.A.=X*X.X@Xz.y.a.a.S.N.B.wXVXpXu.A t.pXFXFXFXFXFX",
"FXFXFXFXFXx i.jXtXD.pXpXNXcXeXS.L.M.a.M.N.f.K.dXbXZXAXAXAXSXSXSXSXSXAXmXmX6X<X1XH.<.,X*XA.M.y.Z.N.D.pXaXwXeXD.eXgXV.@XFXFXFXFXFX",
"FXFXFXFX& N c h.CXNXBXcXaXcXcXNXaXeXD.a.d.K.<XmXnXZXZXZXAXAXSXSXSXSXZXgXsXdX6X<X1XH.D d.Z.S.L.eXcXcXaXeXaXcXgXpXz.v.l.iXFXFXFXFX",
"FXFXFXFX: f s.jXAXAXaXBXCXCXiXCXNXVXnXMX1X<X6XmXnXnXVXVXZXAXSXSXSXSXAXfXrXsXsXrX:X,XH.B fXBXVXNXcX$XVXVXcXeXeXaXcX@X1.%XFXFXFXFX",
"FXFXFX% , > Y J.CXCXCXaXpXpXiXiXBXcXmX:XZXnX<XbXbXbXbXgXVXAXSXSXSXSXZXrXL.>XsXrXL.W.gXCXf.gXcXcX9X9X9X9XlXvXlXuX|.1.1.m.iXFXFXFX",
"FXFXFX$ > , g R.BXjXpXpXpXpXpX9XcXNXnX<X:XAXAXgXsXfXgXgXbXAXSXSXSXSXZXrXK.K.<XsXrXVXZXh.fXjXCXDXlX0XlXlXlXcXvXnXmX1.1.1.@XFXFXFX",
"FXFX  z > > f g i.Y.jXjXjXjXjXaXmX6XmXnX:X<XAXSXVXrXrXrXfXAXSXSXSXSXVXL.L.K.>XZXAXAXsXh.gXgXfXBXvXNXDXvXDXvX4X*X3.1.1.2.z.iXFXFX",
"FXFX& > z f f g { yXR.R.R.Y.S.D.<XbXnXnXmX:XnXAXSXAXK.K.>XZXSXSXSXSXbXK.G.K.AXSXSXbX<XnXBXbXjXT.7X-X&X&X-X-XvX*X4.1.1.2.l.uXFXFX",
"FXFX: < > < g ~ ^ p.yXjXjXjXBXfXJ.J.K.tXgXgXsXVXAXVXsXf.H.VXSXSXSXSXnXK.3.bXAXAXAXdXVXVXgXrXrXtXhXAXDXNXvXlX-X X:X1.1. Xn.*XFXFX",
"FX& < f g N N N { { j.R.R.R.L.rXE.E.I.I.jXVXAXSXZXAXAXG.3.nXSXSXSXSXbX:X<XAXSXAXSXSXSXAXbXnXnXBXjXaXcXcXlXlX-X-XXXXX.X.XoXXXvXFX",
"FX& N g ~ ^ ' ' g.g.a.R.aXgXjXW.E.T.E.E.jXAXSXSXZXnXVXgX<.nXSXSXSXSXbX3.nXZXZXAXSXSXSXAXAXZXnXbXBXCXDXZXxX4X4X4X3X3X5XXXXXXXmXFX",
"FX: N ^ i.' i.i.J.g.p.y.S.rXyXtXfXI.U.jXCXAXSXAXAXfXmXnXH.nXSXSXSXSXVX:XZXnXnXAXSXSXSXSXZXbXbXVXVXjXcXDXMXMXMXxX4X4X5X3X-X-XmXFX",
"FX< ^ ' [ [ { i.j.p.a.M.#X| j.I.I.yXW.jXAXAXAXSXAXfXbXnXZXZXSXSXSXSXnXnXnXZXnXSXSXSXSXSXVXnXVXgXdXrXtXMXMXMXMXMX4X4X4X5X-X-X-XFX",
"% v J.h.[ ` [ o...i.p.a.R.2 B I.W.T.hXBXCXAXZXZXSXCX<XAXSXAXSXSXSXSXAXSXZX<XZXSXAXAXAXZXZXBXgXbXfXj.| MXMXMXxXzXMXiXuX|.D.S.L.FX",
"& i.yXpXY._ ` {  .{ s.U.{ 1 1 r ( E.E.CX .U.ZXVXVXSXAXSXSXSXSXSXSXSXSXAXSXZX....SXBXbXVXbXjXfXK.g.) E cXvXcXiXpXpXeXR.S.j.j.h.W.",
"% ' W.E. .` ` P. ...P.I.C 1 o e p 4 } g.u q SXSXAXAXAXSXSXSXSXSXSXSXSXSXSXT.i w fXrX>XL.| / l V j P P T.pXyXwXyXhXY.U.U.g.[ ..T.",
"$ ~ ` ` E E E _ o.o.P.P.B 2 o w u r j kXk |  .u  .cXiXAXSXSXSXSXSXSXSXSXNXCXT C AXfXrXW.| a e t r p J o.wXY.Y.Y.Y.U.g.g.{ ` ` g.",
"$ G U I I R E  .o.U.P.I.V 3 3 u H H  .P.V Y.T u ( fXBX} T } CXSXW.( [ hXNXT./ j.../ | T ( tXe 3 4 r H _ J.h.Y.P.U.{ [ ` ` ` Y g.",
"$ I L I I E X.o.o.T.I.T.V u e p J J I.j w E.s w q T.y w r i T g.a i 7 i hX( w g.s w w w w g.V 3 3 e p _ s.U.U.{ i.{ ` ^ ~ Y U { ",
"$ 0 G G R X.o.P.P.T.T.Y.( H e r J p yXu w hXq 7 j.} p / BX .tXu u E.N a ..j r T.w w h./ w } V 4 3 e u ` s.h.i.{ i.[ ' ^ Y U G ` ",
"$ 0 U R `  .P.E.T.E.E.E...P r r H r tXw i yXw l SX( i g.SXkXW.u t SX| u } r r E.w s SX( u j.8 e 2 3 e { s.s.i.i.s.{ ^ ~ Y G G  .",
"% Y ~ ` o.o.P.T.T.E.yXW.U.J r p p a E.r k U.u s g...a t k p | q q ( t w ..w i j.r / SXj i tXo 1 3 1 p B.8XS.p.i.i.' ' ' ~ Y U [ ",
"FX^ o._ _ o.P.T.U.Y.R.R.wXJ p u r / ..u ( BXi r T AXT w q j BXg.u a i } T.u k  .u | SXp p yXo r 4 2 a 9X9X7XF.s.i.' ' N Y g ~ [ ",
"FXs.U.o.{ P.P.U.Y.E.R.R.8XT H r r l tXrXrXM rXW.fXH.DXkXkXSXSXSXkXT.jXSXZXAXcXgXrX>XG.tXrXD 1 2 3 r ) uX8XF.N.F.u.^ ^ N N ~ [ FX",
"FXc P.{ U.P.U.U.Y.h.F.R.#X| K u r 4 1 o X X X X M Z B S rXSXSXSXSXSXSXjXf.d.,.D 6 t e r e 2 1 3 4 a i.D.s.' ' i.] i.i.s.^ Y [ FX",
"FX= { o.o.U.P.U.Y.Y.S.F.uXvXa p e r 4 1 O O X O O X X 8 L.SXSXSXSXSXAXfX,.m h 5 4 e e u a l 3 4 r a pXS.i.] c ~ U U ~ { ] [ [ FX",
"FXv ' o.i.P.U.P.Y.B.Z.A.pXvX} K p r e 4 1 1 1 1 O . . m L.SXSXSXSXSXSXrXd.9 8 2 3 e r r s s p u u [ aX7XF.S.B.s.N U ` [ s.s.i.FX",
"FXFXc { { P.s.s.N.D.B.L.pXgXiXs P p p u r 2 O O X . + m K.AXSXSXSXSXSXK.d.9 8 3 e e r a W H u 3 5 aXcXjXaX7X8XS.F.6.s.Y.wXwXFXFX",
"FXFXv { ..s.h.s.p.h.J.J.R.pXaX| L P J H p r 3 o X + . @ ,.ZXSXSXSXSXVXf.S C 9 5 e e u a K P 1 O p.vXcXcXcXaX9X7X8X8XR.8XwXwXFXFX",
"FXFX; ' i.{ {  .` ` { h.h.wXpXcXV Q Q P J p p 3 O + . @ S mXSXSXSXSXbXd.B h 9 l t u p H J e 4 B DXvXvXcXvXjXaX9X7XpX7X7XeXwXFXFX",
"FXFXFXv ^ ~ Y U U Y  .Y.Y.eXcXBXpX) ! ! R R L j j 9 @ @ S <XSXSXSXSX<Xd.C B S C C / T l e i E NXDXDXvXvXcXvXaXiX9XpXpX7XeXFXFXFX",
"FXFXFX& d I I I G U Y J.S.eX7X9XiXR.! ! Q P K L s V h M <.>XSXSXSXSX>XD 9 8 C B h 6 1 3 e W pXDXvXNXvXcXvXcXcXaX9X9X9X7X7XFXFXFX",
"FXFXFXFX, I 0 I I U ^ S.eX$X9X+X7X9XS.E P.X. .| } C D D 3.1XAXSXSXAXG.D 8 9 6 2 1 2 4 r T pXDXvXvXDXvXvXcXcXaXiXpX9X9X7XFXFXFXFX",
"FXFXFXFX$ , 0 0 ~ ] M.D.eXuX7X7X%X9X$XS.o.tXW.W.K.f.f.,.f.:XAXSXSXVXG.D 9 9 6 2 3 4 r ( cXvXvXcXDXvXDXvXcXcX0XcX9X9XuX7XFXFXFXFX",
"FXFXFXFXFX$ , 0 e.x.7X#X8X$X$X#XpX+X+X+X+XS.hXjXjXyXK.K.H.,XZXSXSXgX<.,.S 9 M y l L h.zXvXzXcXvXlXvXvXlX0XcX0X9X9X9X7XFXFXFXFXFX",
"FXFXFXFXFX% , f y.Z.D.#X#X#X7X+X+X+XC.7X8X+X`.7XpXgXdXsX1X<XnXSXSXsXG.G.<.<.<.,.i.qXzXzXzXlXlXaXlXcXlXlX0XqXqX9X9X+X+XFXFXFXFXFX",
"FXFXFXFXFXFX% b t.z.c.A.F.#XF.7X7Xq.q.F.C.q.`.q.9.OX$X,XbX<XnXSXSX6X<X:X3.H.A.[.5XlXzXzXlXlXqXcX0XqX0X0XqXqX&X9X9X+XFXFXFXFXFXFX",
"FXFXFXFXFXFXFX& %.r.v.V.F.C.C.OX8X+X0.q.0.C.q.0.q._.].}.].0XzXSXSXiXiX}.5X].'.'.[.5XqXqXlXqXqX0X&X9X+X9X9X&X9X9X_.FXFXFXFXFXFXFX",
"FXFXFXFXFXFXFXFX- A u.V.V.#X7XC.q.F.C.q.q.9.q.8./.'.(.}.}.zXxXSXAXxXxX}.]._._._._.].[.qX&XzXlXqX+X+X8X+X9X'.9X_.FXFXFXFXFXFXFXFX",
"FXFXFXFXFXFXFXFX; @.6.V.V.F.F.#X0.0.0.C.C.q.9.8.`.^.^.).}.}.xXDXAXxX}.}.[.^.^._.^._.'.[.qX&X&X'.9X_.`.+X+X9X_.9.FXFXFXFXFXFXFXFX",
"FXFXFXFXFXFXFXFXFXO.*.8.V.0.0.6.8.0.8.8.8.q.q.9.~.^.(.).}.}.xXSXDXxX).).{.!.9.~.~.'.'._.'.[.&X&X+X+X`.OX`.q.5.FXFXFXFXFXFXFXFXFX",
"FXFXFXFXFXFXFXFXFXFX* @.7.V.0.6.q.8.8.6.8.8.7.q._._.(.(.).}.zXxXxX}.).).{.~.~.~.~.9.^._.'.&X&X9X&X_.+XOX9.=.FXFXFXFXFXFXFXFXFXFX",
"FXFXFXFXFXFXFXFXFXFXFXFX@.7.0.6.6.6.6.8.0.8.7.9.~.~.).[.].5X}.4XzX}.}.).(.~.5.5.5.!.~.^._._.9X_.&X_.+X5.FXFXFXFXFXFXFXFXFXFXFXFX",
"FXFXFXFXFXFXFXFXFXFXFXFXFX+.=.6.6.6.6.0.6.6.9.9.~._.(.[.].}.}.].].].).{.^.!.5.5.w.9.9.~./._._._.+X~.=.FXFXFXFXFXFXFXFXFXFXFXFXFX",
"FXFXFXFXFXFXFXFXFXFXFXFXFXFX* @.7.6.6.6.6.7.8.~.~._.'.'.zXzX[.{.(.(.{.{.!.~.w.w.w.5.9.9././._.^.5.#.FXFXFXFXFXFXFXFXFXFXFXFXFXFX",
"FXFXFXFXFXFXFXFXFXFXFXFXFXFXFXFX- @.7.6.7.7.9.9./.[.'.'.lX[.[.(.{.^.!.(.!.!.9.=.=.w.5.9.~./.5.@.FXFXFXFXFXFXFXFXFXFXFXFXFXFXFXFX",
"FXFXFXFXFXFXFXFXFXFXFXFXFXFXFXFXFXFX+.@.=.w.9.~./.'._.(.].[.(.^.{.4.4.4.!.!.=.=.=.w.w.=.#.+.FXFXFXFXFXFXFXFXFXFXFXFXFXFXFXFXFXFX",
"FXFXFXFXFXFXFXFXFXFXFXFXFXFXFXFXFXFXFXFX* @.#.5./.^.^.'.'.(.^.^.!.4.4.4.-.5.=.=.*.=.@.O.FXFXFXFXFXFXFXFXFXFXFXFXFXFXFXFXFXFXFXFX",
"FXFXFXFXFXFXFXFXFXFXFXFXFXFXFXFXFXFXFXFXFXFXFX+.$.#.#.!.!.!.4.9.4.-.#.4.#.#.@.+.* FXFXFXFXFXFXFXFXFXFXFXFXFXFXFXFXFXFXFXFXFXFXFX",
"FXFXFXFXFXFXFXFXFXFXFXFXFXFXFXFXFXFXFXFXFXFXFXFXFXFXFX$.$.$.$.$.$.O.O.O.O.FXFXFXFXFXFXFXFXFXFXFXFXFXFXFXFXFXFXFXFXFXFXFXFXFXFXFX"
};
