/* XPM */
static char *result[] = {
/* columns rows colors chars-per-pixel */
"128 128 21 1 ",
"  c #0061A6FBF4DF",
". c #00B9ABEDF51D",
"X c #0154B393F555",
"o c #001ABBDDF45F",
"O c #0880B9AFF843",
"+ c #0260B595F915",
"@ c #0810B68BF9AB",
"# c #0124BDD6F988",
"$ c #0903BC18FA7F",
"% c #006EC24EF6CF",
"& c #0080C4ADFCFE",
"* c #0AB8C42FFCA1",
"= c #04A6C9B4FFF6",
"- c #0B43CC39FFEA",
"; c #0FF0C729FDAD",
": c #1246CF4DFFF6",
"> c #05B7D1E9FFF9",
", c #0D98D4ECFFFD",
"< c #14A0D241FFF8",
"1 c #14D0D8C2FFFD",
"2 c None",
/* pixels */
"22222222222222222222222222222222222222222222222222222222222222222222222222222222222222222222222222222222222222222222222222222222",
"22222222222222222222222222222222222222222222222222222222222222222222222222222222222222222222222222222222222222222222222222222222",
"22222222222222222222222222222222222222222222222222222222222222222222222222222222222222222222222222222222222222222222222222222222",
"22222222222222222222222222222222222222222222222222222222222222222222222222222222222222222222222222222222222222222222222222222222",
"22222222222222222222222222222222222222222222222222222222222222222222222222222222222222222222222222222222222222222222222222222222",
"22222222222222222222222222222222222222222222222222222222222222222222222222222222222222222222222222222222222222222222222222222222",
"22222222222222222222222222222222222222222222222222222222222222222222222222222222222222222222222222222222222222222222222222222222",
"22222222222222222222222222222222222222222222222222222222222222222222222222222222222222222222222222222222222222222222222222222222",
"22222222222222222222222222222222222222222222222222222222222222222222222222222222222222222222222222222222222222222222222222222222",
"22222222222222222222222222222222222222222222222222222222222222222222222222222222222222222222222222222222222222222222222222222222",
"22222222222222222222222222222222222222222222222222222222222222222222222222222222222222222222222222222222222222222222222222222222",
"22222222222222222222222222222222222222222222222222222222222222222222222222222222222222222222222222222222222222222222222222222222",
"22222222222222222222222222222222222222222222222222222222222222222222222222222222222222222222222222222222222222222222222222222222",
"22222222222222222222222222222222222222222222222222222222222222222222222222222222222222222222222222222222222222222222222222222222",
"22222222222222222222222222222222222222222222222222222222222222222222222222222222222222222222222222222222222222222222222222222222",
"22222222222222222222222222222222222222222222222222222222222222222222222222222222222222222222222222222222222222222222222222222222",
"22222222222222222222222222222222222222222222222222222222222222222222222222222222222222222222222222222222222222222222222222222222",
"22222222222222222222222222222222222222222222222222222222222222222222222222222222222222222222222222222222222222222222222222222222",
"22222222222222222222222222222222222222222222222222222222222222222222222222222222222222222222222222222222222222222222222222222222",
"22222222222222222222222222222222222222222222222222222222222222222222222222222222222222222222222222222222222222222222222222222222",
"22222222222222222222222222222222222222222222222222222222222222222222222222222222222222222222222222222222222222222222222222222222",
"22222222222222222222222222222222222222222222222222222222222222222222222222222222222222222222222222222222222222222222222222222222",
"22222222222222222222222222222222222222222222222222222222222222222222222222222222222222222222222222222222222222222222222222222222",
"22222222222222222222222222222222222222222222222222222222222222222222222222222222222222222222222222222222222222222222222222222222",
"22222222222222222222222222222222222222222222222222222222222222222222222222222222222222222222222222222222222222222222222222222222",
"22222222222222222222222222222222222222222222222222222222222222222222222222222222222222222222222222222222222222222222222222222222",
"22222222222222222222222222222222222222222222222222222222222222222222222222222222222222222222222222222222222222222222222222222222",
"22222222222222222222222222222222222222222222222222222222222222222222222222222222222222222222222222222222222222222222222222222222",
"22222222222222222222222222222222222222222222222222222222222222222222222222222222222222222222222222222222222222222222222222222222",
"22222222222222222222222222222222222222222222222222222222222222222222222222222222222222222222222222222222222222222222222222222222",
"22222222222222222222222222222222222222222222222222222222222222222222222222222222222222222222222222222222222222222222222222222222",
"22222222222222222222222222222222222222222222222222222222222222222222222222222222222222222222222222222222222222222222222222222222",
"22222222222222222222222222222222222222222222222222222222222222222222222222222222222222222222222222222222222222222222222222222222",
"22222222222222222222222222222222222222222222222222222222222222222222222222222222222222222222222222222222222222222222222222222222",
"22222222222222222222222222222222222222222222222222222222222222222222222222222222222222222222222222222222222222222222222222222222",
"22222222222222222222222222222222222222222222222222222222222222222222222222222222222222222222222222222222222222222222222222222222",
"22222222222222222222222222222222222222222222222222222222222222222222222222222222222222222222222222222222222222222222222222222222",
"22222222222222222222222222222222222222222222222222222222222222222222222222222222222222222222222222222222222222222222222222222222",
"22222222222222222222222222222222222222222222222222222222222222222222222222222222222222222222222222222222222222222222222222222222",
"22222222222222222222222222222222222222222222222222222222222222222222222222222222222222222222222222222222222222222222222222222222",
"2222222211111,222222222222222222222222222222222222222222222222222222222222222222222222222222221111,22222222222222222222222222222",
"222222211<<--=>>222222222222222222222222222222222222222222222222222222222222222222222222222211<<---->222222222222222222222222222",
"22222211<::-====22222222222222222222222222222222222222222222222222222222222222222222222222211<::-=====22222222222222222222222222",
"2222221<<---==&#%222222222222222222222222222222222222222222222222222222222222222222222222221<<--====&%22222222222222222222222222",
"222221<<--===&&oo22222222222222222222222222222222222222222222222222222222222222222222222221<:--===&#oo22222222222222222222222222",
"2222211---==&#ooo222222222222222222222222222222222222222222222222222222222222222222222222211:--===#ooo22222222222222222222222222",
"222221<--==&ooooo2222222222222222222222222222222222222222222222222222222222222222222222222<,--==&&oooo22222222222222222222222222",
"222222,===%%oXooo22222222222222222222222222222222222222222222222222222222222222222222222222,-==&#oooXo22222222222222222222222222",
"222222,==&&oooooo22-::-::-:-:22222222222222222222222222222222222222222222222222222222222222,==&&oooooo22222222222222222222222222",
"2222222=&%oooooo222------:-:-222222222222222222222222222222222222222222222222222222222222222>=%#oXXoo222222222222222222222222222",
"22222222=#ooXoo2222-----,---:2222222222222222222222222222222222222222222222222222222222222222=#ooooo2222222222222222222222222222",
"22222222222%2222222----------2222222222222222222222222222222222222222222222222222222222222222222%2222222222222222222222222222222",
"2222222222222222222----=-----222222222222222222222222222222222222222222222222222222222222222222222222222222222222222222222222222",
"222222222222222222===-=-=--=-2222222222222222--=-=2222222222222222222222222222222222222222222222222222222222222222222=--::222222",
"22222---=&#ooo&222-=====-=-=22222222222222------=====2222222222222222---=&ooo2222222222222:--==&ooo&222:-===#ooo&22&==-::<::2222",
"22222,-==&#oo&=222====-=====.+&=-2222222:::::-----=====22222222222<<:--==&ooX&==2222222222--==&#oo&&222:-==&ooo%&o&&==-::<:::222",
"2222:--==&#o&&2222=======&== #&==22222<<:<:::-:----=====222222222<<:<--==#oooo-==22222222:--==&#oo=&22---==&#o#=#o#&=---:<<::-22",
"2222:-==&##o==2222=========# #==-2222:<<<<:::::------=-==222222:<<<<:---=&ooXX--==2222222:--==%#o==222:-==&##o==#o&==--:<<:::*-2",
"2222:-===%o==&2222==&=&====# &&=-222:-@....$:::-:-----==-=2222-:<<<::--==&ooXX-----222222--==&%o==&222--===%o===oo#===-:<<<:---2",
"2222-===&#%===222-&&=&==&==+ #==222-$.###@.. .-::::-----===22--:<<:<:--==##oo+::----22222:===&#%==&222--==&o%-=&o#&==--$.@.@$--2",
"2222--=&##===&222-&=&&&=&== .===222@&&&&&&#&+. $::::------=22--:;<<;:--==%ooXX<<;::*22222--==##====222:-==##===%oo%=&.  XXXXX.o=",
"222:-==&%*===&222*#&&&&&&&= .&==22&===&&=&&&#&+ @<:::::---22=--:<<<<<--==%oo.O<<<<:::2222-===%&-==&222-==&&&===#oo&X X#&#%oooooo",
"222:-==&%-==&2222:X##&&&&&# +&==22=======&&&=2222*:::::--222==-:<<<<:--==&oo.O:<<<<::222--==&#===&222--==&#-==&#o#2.&&&&%&###o#o",
"222-===&&-==&2222< &&##&#&# o==22-==========222222:::::2222==--:;<<;<$2222oX *:::<<<:222-===&#-==&222--==&%====oo2222=&=&&&&&&%#",
"222-===&=====2222< o#%%%&%&222222----==-===2222222:<:222222==---<<<;.222222..-::::::<:22--==%*===&222-===#*-===o22222=====&&&&&#",
"222-==&o*===&222<:;X###o##2222222------*--=222222222222222&&=-::<<$ .2222222.::-::::::22-==&#-===&222-==&&====&2222222=======&==",
"222-=&&%-==&&222<<:.ooooo#2222222:---------222222222222222%===-:<$  22222222+----:::::22-==#%-===&222===&o--==#222222==========2",
"22-==&%%-===2222:::@.ooooo2222222::::::;--*222222222222222#==--:O .O22222222&-------::22==&&#====#222===&%===&#222222=--=======2",
"22-==&#=====2222:::; Xoooo222222::::<;<::-$222222222222222&==--O Ooo22222222==-=------2-==&#*====222-===%*===&2222222===----===2",
"22-=&&o-===&2222::::$ .ooo2222222<<:<<<:<:$2222222:2222222#&=-*.Xoo%2222222&=====-=---2-==%#-===&222===&#*====2222222====------2",
"22==&&#-==&#2222::::<O .oo2222222<<<<;<<::$2222222:::22222&==-.ooo%%&222222=&=======-22-=&&#-===&222==&#o-==&&2222222=====:----2",
"22==&#*===&&222------;*  22222222::<<<<<<:: 22222--:::2222#&=oXXoo%%=22222#&&=&====-=22==&#&-==&&222===#&====#2222222--===--:-22",
"22==##-===&&222--------:*@2222222:::::::::<..=2==----:::22&==.oo##&&=&222#%&&&&===&==22==&#*===&&222==&#--==&#222222--*--==<:-22",
"2===&#--==#2222-*----------:-:222----:-::::O #&&====-:::::2=#Xo##&===-#  oo##%#&&&=&222==&%-===&2222==#%-===&&222222--------::22",
"2-=&%*-==&&2222===-----------:2222-----::-:- .&&&===---::<2=oo#&&=====-*...oo##%&&&=22==&#--===#222===%*===&&2222222:-------::22",
"2==&*-====&22222=-=-==--------2222---=------* X#&&&===---222oo#&&====--::*..Xoo##&#222==&&--===#222==&*--===&2222222:::-----:<22",
"2=&&---==&#22222=====-=---=---22222=======---* +##&&====2222##&&====*-:-::<*O+XXoo2222==&---==&&222==&--==&&#2222222:::::---::22",
"2=&-,-===&#22222===========-=-222222=======-==*..o#&&==222222&&=====--:::<<:---&&22222=&*:-==&&#222==*:-*==&&2222222:::::::-:222",
"2=-:-====#&222222==========-==2222222===========&@+#&=22222222===---:::<<<::-===222222=*:--===&#222==---===&#222222<<<:::::::222",
"==::--==&&22222222============22222222&&&&=========--2222222222==---;:<<<:--===2222222-::--===&2222=::--===&2222222:<:<::::::222",
"-:::--===#222222222==&=======22222222222&&&&==&====22222222222222--:::<::---=222222222:::--===&2222::---==&&2222222:<<<<<<<::222",
"22222222222222222222222222222222222222222222#&&22222222222222222222:::<:::-22222222222222222222222222222222222222222222222222222",
"22222222222222222222222222222222222222222222222222222222222222222222222222222222222222222222222222222222222222222222222222222222",
"22222222222222222222222222222222222222222222222222222222222222222222222222222222222222222222222222222222222222222222222222222222",
"22222222222222222222222222222222222222222222222222222222222222222222222222222222222222222222222222222222222222222222222222222222",
"22222222222222222222222222222222222222222222222222222222222222222222222222222222222222222222222222222222222222222222222222222222",
"22222222222222222222222222222222222222222222222222222222222222222222222222222222222222222222222222222222222222222222222222222222",
"22222222222222222222222222222222222222222222222222222222222222222222222222222222222222222222222222222222222222222222222222222222",
"22222222222222222222222222222222222222222222222222222222222222222222222222222222222222222222222222222222222222222222222222222222",
"22222222222222222222222222222222222222222222222222222222222222222222222222222222222222222222222222222222222222222222222222222222",
"22222222222222222222222222222222222222222222222222222222222222222222222222222222222222222222222222222222222222222222222222222222",
"22222222222222222222222222222222222222222222222222222222222222222222222222222222222222222222222222222222222222222222222222222222",
"22222222222222222222222222222222222222222222222222222222222222222222222222222222222222222222222222222222222222222222222222222222",
"22222222222222222222222222222222222222222222222222222222222222222222222222222222222222222222222222222222222222222222222222222222",
"22222222222222222222222222222222222222222222222222222222222222222222222222222222222222222222222222222222222222222222222222222222",
"22222222222222222222222222222222222222222222222222222222222222222222222222222222222222222222222222222222222222222222222222222222",
"22222222222222222222222222222222222222222222222222222222222222222222222222222222222222222222222222222222222222222222222222222222",
"22222222222222222222222222222222222222222222222222222222222222222222222222222222222222222222222222222222222222222222222222222222",
"22222222222222222222222222222222222222222222222222222222222222222222222222222222222222222222222222222222222222222222222222222222",
"22222222222222222222222222222222222222222222222222222222222222222222222222222222222222222222222222222222222222222222222222222222",
"22222222222222222222222222222222222222222222222222222222222222222222222222222222222222222222222222222222222222222222222222222222",
"22222222222222222222222222222222222222222222222222222222222222222222222222222222222222222222222222222222222222222222222222222222",
"22222222222222222222222222222222222222222222222222222222222222222222222222222222222222222222222222222222222222222222222222222222",
"22222222222222222222222222222222222222222222222222222222222222222222222222222222222222222222222222222222222222222222222222222222",
"22222222222222222222222222222222222222222222222222222222222222222222222222222222222222222222222222222222222222222222222222222222",
"22222222222222222222222222222222222222222222222222222222222222222222222222222222222222222222222222222222222222222222222222222222",
"22222222222222222222222222222222222222222222222222222222222222222222222222222222222222222222222222222222222222222222222222222222",
"22222222222222222222222222222222222222222222222222222222222222222222222222222222222222222222222222222222222222222222222222222222",
"22222222222222222222222222222222222222222222222222222222222222222222222222222222222222222222222222222222222222222222222222222222",
"22222222222222222222222222222222222222222222222222222222222222222222222222222222222222222222222222222222222222222222222222222222",
"22222222222222222222222222222222222222222222222222222222222222222222222222222222222222222222222222222222222222222222222222222222",
"22222222222222222222222222222222222222222222222222222222222222222222222222222222222222222222222222222222222222222222222222222222",
"22222222222222222222222222222222222222222222222222222222222222222222222222222222222222222222222222222222222222222222222222222222",
"22222222222222222222222222222222222222222222222222222222222222222222222222222222222222222222222222222222222222222222222222222222",
"22222222222222222222222222222222222222222222222222222222222222222222222222222222222222222222222222222222222222222222222222222222",
"22222222222222222222222222222222222222222222222222222222222222222222222222222222222222222222222222222222222222222222222222222222",
"22222222222222222222222222222222222222222222222222222222222222222222222222222222222222222222222222222222222222222222222222222222",
"22222222222222222222222222222222222222222222222222222222222222222222222222222222222222222222222222222222222222222222222222222222",
"22222222222222222222222222222222222222222222222222222222222222222222222222222222222222222222222222222222222222222222222222222222",
"22222222222222222222222222222222222222222222222222222222222222222222222222222222222222222222222222222222222222222222222222222222",
"22222222222222222222222222222222222222222222222222222222222222222222222222222222222222222222222222222222222222222222222222222222",
"22222222222222222222222222222222222222222222222222222222222222222222222222222222222222222222222222222222222222222222222222222222",
"22222222222222222222222222222222222222222222222222222222222222222222222222222222222222222222222222222222222222222222222222222222",
"22222222222222222222222222222222222222222222222222222222222222222222222222222222222222222222222222222222222222222222222222222222",
"22222222222222222222222222222222222222222222222222222222222222222222222222222222222222222222222222222222222222222222222222222222",
"22222222222222222222222222222222222222222222222222222222222222222222222222222222222222222222222222222222222222222222222222222222",
"22222222222222222222222222222222222222222222222222222222222222222222222222222222222222222222222222222222222222222222222222222222",
"22222222222222222222222222222222222222222222222222222222222222222222222222222222222222222222222222222222222222222222222222222222"
};
