/* XPM */
static char *result[] = {
/* columns rows colors chars-per-pixel */
"64 64 204 2 ",
"   c #000CAEA5F38B",
".  c #01DEAD45F4E3",
"X  c #0322AF13F673",
"o  c #024EAF97F717",
"O  c #0372AFC7F6DD",
"+  c #0004B189F27D",
"@  c #0002B4D3F265",
"#  c #006CB519F2DF",
"$  c #0000B7ADF273",
"%  c #0018B69BF3D5",
"&  c #00D6B151F4F9",
"*  c #0010B175F74F",
"=  c #0336B095F72F",
"-  c #0142B355F6FB",
";  c #0000B3A3F80B",
":  c #0264B2D7F789",
">  c #02AAB375F7A7",
",  c #03BAB2EFF747",
"<  c #0000B5A5F5C9",
"1  c #0210B5EDF4A5",
"2  c #0000B781F4B9",
"3  c #0008B4BDF739",
"4  c #0000B529F831",
"5  c #0000B539F81D",
"6  c #03C2B46FF531",
"7  c #056EB4E7F761",
"8  c #04ACB701F7F1",
"9  c #0000B9C0F0FD",
"0  c #0000BA3FF261",
"q  c #0000BB73F1BB",
"w  c #0000BA07F3D1",
"e  c #0004BAC2F2C2",
"r  c #0000BC3BF285",
"t  c #0000BBBFF405",
"y  c #0000BD51F313",
"u  c #004BBCA5F3EB",
"i  c #0000B8F9F571",
"p  c #0212B9B1F5A9",
"a  c #0000BAA7F495",
"s  c #0000BC2CF4E9",
"d  c #0000BA61F589",
"f  c #0000B8A1F6A3",
"g  c #0002B96FF6D7",
"h  c #006ABB1FF687",
"j  c #0000BC94F51B",
"k  c #0080BD41F547",
"l  c #0015BCFEF5A9",
"z  c #0000BDE5F657",
"x  c #0008BDABF84B",
"c  c #0210BCB1F6D5",
"v  c #0000BE57F701",
"b  c #0000BEE8F7B5",
"n  c #0106BE3FF7F7",
"m  c #0000BF7EF857",
"M  c #0122BFFBF837",
"N  c #014CB425F8DF",
"B  c #019CB541F87D",
"V  c #033EB7B1F883",
"C  c #000AB83BF8AD",
"Z  c #0000B9DEF929",
"A  c #01FCBB8DF8C7",
"S  c #0000B977FAAF",
"D  c #0742B953F8F9",
"F  c #071CBB0DF9C1",
"G  c #0000BDB5FA1B",
"H  c #0000C025F8D5",
"J  c #029ABE41FA15",
"K  c #0036BF7DFBAB",
"L  c #0832B8DDFA43",
"P  c #095FBBBDFA04",
"I  c #0808BE7BFAC9",
"U  c #098CC035FBB9",
"Y  c #0C3ABF79FBBD",
"T  c #0000C08BF607",
"R  c #0000C079F85F",
"E  c #01FEC119F811",
"W  c #0000C07FF93A",
"Q  c #004EC155F8D1",
"!  c #0003C0FDF9D4",
"~  c #0006C181FA04",
"^  c #0139C1DAFA12",
"/  c #01CCC159F963",
"(  c #01C7C20DFA19",
")  c #021AC24BFA49",
"_  c #0003C1FBFAAD",
"`  c #0013C291FB26",
"'  c #0124C293FAE3",
"]  c #0007C302FBE5",
"[  c #0004C3ACFC1F",
"{  c #017CC3DBFBED",
"}  c #03B0C337FA2B",
"|  c #041AC3A7FA83",
" . c #0030C67FFA4D",
".. c #0050C529FB47",
"X. c #03F8C45FFB4B",
"o. c #0440C4F2FBB7",
"O. c #0610C5C5FBC7",
"+. c #0662C64BFC19",
"@. c #014AC109FD69",
"#. c #001AC41DFCA3",
"$. c #049CC223FCCD",
"%. c #0386C271FD77",
"&. c #04A2C3E1FE0B",
"*. c #0029C4C3FD2A",
"=. c #0084C519FCFF",
"-. c #008EC57BFCF1",
";. c #002AC527FD99",
":. c #003AC5C5FE0F",
">. c #00C6C5D0FE09",
",. c #006FC67CFE73",
"<. c #00C3C679FE5E",
"1. c #01EEC713FE27",
"2. c #034AC6C7FDE7",
"3. c #0042C6C1FEF1",
"4. c #00F6C6F3FEC2",
"5. c #013DC7A8FF44",
"6. c #0068C74DFFA9",
"7. c #00EFC7E4FFC8",
"8. c #01EDC7DCFF4D",
"9. c #018EC811FF85",
"0. c #0540C635FC81",
"q. c #073EC4B7FD7F",
"w. c #058EC621FE7D",
"e. c #0580C647FC81",
"r. c #03FAC703FDD3",
"t. c #05F3C69DFC88",
"y. c #06E5C6F9FC8C",
"u. c #077CC75FFCC3",
"i. c #060CC6B1FE45",
"p. c #03A2C799FF39",
"a. c #0488C7AFFF33",
"s. c #0928C21BFC09",
"d. c #0C20C18FFBEA",
"f. c #0D30C19DFBA6",
"g. c #0B24C509FD97",
"h. c #0C4FC7CDFE41",
"j. c #014BC85DFFF0",
"k. c #021AC8A6FFE6",
"l. c #02F0C8D8FFD8",
"z. c #034BC961FFFF",
"x. c #0370CA9BFF59",
"c. c #075AC8D1FE0F",
"v. c #0416C90BFF7B",
"b. c #03D9C929FFE2",
"n. c #0434C97FFFFE",
"m. c #04FAC9BBFFF9",
"M. c #05FDCA16FFFB",
"N. c #06DDCA42FFFF",
"B. c #0676CA65FFFB",
"V. c #071BCAA0FFFB",
"C. c #076ED003FFF5",
"Z. c #0B28C891FE73",
"A. c #0A34C9F9FE49",
"S. c #0908C8E5FEED",
"D. c #07D8C9E3FEDF",
"F. c #0812CA5BFF25",
"G. c #08DCCAE4FF75",
"H. c #0800CAFDFFFD",
"J. c #08BCCB20FFE9",
"K. c #07F6CB81FFF9",
"L. c #0923CB7DFFFE",
"P. c #0A86CB75FF6B",
"I. c #09FECBE0FFFF",
"U. c #0AECCC38FFFF",
"Y. c #0E02C975FEB7",
"T. c #0B9ECADBFF23",
"R. c #0EE4CB69FED5",
"E. c #0B4ACC76FFFE",
"W. c #0C11CCB6FFFD",
"Q. c #0D1ECD03FFF8",
"!. c #0D64CD59FFFD",
"~. c #0DE4CD36FFFF",
"^. c #0E98CD3FFFC5",
"/. c #0E33CD75FFFF",
"(. c #0F24CDE8FFF6",
"). c #0C9ACF5BFFFF",
"_. c #0FAAC9F7FE6B",
"`. c #1076CD53FF5F",
"'. c #0FBECE2CFFFE",
"]. c #12FBCE37FF46",
"[. c #1032CE74FFFF",
"{. c #10F8CEE9FFF8",
"}. c #117CCF59FFFD",
"|. c #119CCF33FFFF",
" X c #12E6CF3BFFFB",
".X c #121FCF8CFFFF",
"XX c #130DCFA4FFFB",
"oX c #1443D003FFFC",
"OX c #14DDD012FFF9",
"+X c #0A38D0AFFFFD",
"@X c #0CD2D14BFFFD",
"#X c #1016D263FFFF",
"$X c #124ED26FFFFF",
"%X c #125ED3DFFFFF",
"&X c #1511D078FFF9",
"*X c #15B0D07FFFFD",
"=X c #1466D38FFFFF",
"-X c #107CD523FFFD",
";X c #145AD5F5FFFF",
":X c #14A4D705FFFF",
">X c #1480D795FFFD",
",X c #14E8D787FFFD",
"<X c #1430D86FFFFD",
"1X c None",
/* pixels */
"1X1X1X1X1X1X1X1X1X1X1X1X1X1X1X1X1X1X1X1X1X1X1X1X1X1X1X1X1X1X1X1X1X1X1X1X1X1X1X1X1X1X1X1X1X1X1X1X1X1X1X1X1X1X1X1X1X1X1X1X1X1X1X1X",
"1X1X1X1X1X1X1X1X1X1X1X1X1X1X1X1X1X1X1X1X1X1X1X1X1X1X1X1X1X1X1X1X1X1X1X1X1X1X1X1X1X1X1X1X1X1X1X1X1X1X1X1X1X1X1X1X1X1X1X1X1X1X1X1X",
"1X1X1X1X1X1X1X1X1X1X1X1X1X1X1X1X1X1X1X1X1X1X1X1X1X1X1X1X1X1X1X1X1X1X1X1X1X1X1X1X1X1X1X1X1X1X1X1X1X1X1X1X1X1X1X1X1X1X1X1X1X1X1X1X",
"1X1X1X1X1X1X1X1X1X1X1X1X1X1X1X1X1X1X1X1X1X1X1X1X1X1X1X1X1X1X1X1X1X1X1X1X1X1X1X1X1X1X1X1X1X1X1X1X1X1X1X1X1X1X1X1X1X1X1X1X1X1X1X1X",
"1X1X1X1X1X1X1X1X1X1X1X1X1X1X1X1X1X1X1X1X1X1X1X1X1X1X1X1X1X1X1X1X1X1X1X1X1X1X1X1X1X1X1X1X1X1X1X1X1X1X1X1X1X1X1X1X1X1X1X1X1X1X1X1X",
"1X1X1X1X1X1X1X1X1X1X1X1X1X1X1X1X1X1X1X1X1X1X1X1X1X1X1X1X1X1X1X1X1X1X1X1X1X1X1X1X1X1X1X1X1X1X1X1X1X1X1X1X1X1X1X1X1X1X1X1X1X1X1X1X",
"1X1X1X1X1X1X1X1X1X1X1X1X1X1X1X1X1X1X1X1X1X1X1X1X1X1X1X1X1X1X1X1X1X1X1X1X1X1X1X1X1X1X1X1X1X1X1X1X1X1X1X1X1X1X1X1X1X1X1X1X1X1X1X1X",
"1X1X1X1X1X1X1X1X1X1X1X1X1X1X1X1X1X1X1X1X1X1X1X1X1X1X1X1X1X1X1X1X1X1X1X1X1X1X1X1X1X1X1X1X1X1X1X1X1X1X1X1X1X1X1X1X1X1X1X1X1X1X1X1X",
"1X1X1X1X1X1X1X1X1X1X1X1X1X1X1X1X1X1X1X1X1X1X1X1X1X1X1X1X1X1X1X1X1X1X1X1X1X1X1X1X1X1X1X1X1X1X1X1X1X1X1X1X1X1X1X1X1X1X1X1X1X1X1X1X",
"1X1X1X1X1X1X1X1X1X1X1X1X1X1X1X1X1X1X1X1X1X1X1X1X1X1X1X1X1X1X1X1X1X1X1X1X1X1X1X1X1X1X1X1X1X1X1X1X1X1X1X1X1X1X1X1X1X1X1X1X1X1X1X1X",
"1X1X1X1X1X1X1X1X1X1X1X1X1X1X1X1X1X1X1X1X1X1X1X1X1X1X1X1X1X1X1X1X1X1X1X1X1X1X1X1X1X1X1X1X1X1X1X1X1X1X1X1X1X1X1X1X1X1X1X1X1X1X1X1X",
"1X1X1X1X1X1X1X1X1X1X1X1X1X1X1X1X1X1X1X1X1X1X1X1X1X1X1X1X1X1X1X1X1X1X1X1X1X1X1X1X1X1X1X1X1X1X1X1X1X1X1X1X1X1X1X1X1X1X1X1X1X1X1X1X",
"1X1X1X1X1X1X1X1X1X1X1X1X1X1X1X1X1X1X1X1X1X1X1X1X1X1X1X1X1X1X1X1X1X1X1X1X1X1X1X1X1X1X1X1X1X1X1X1X1X1X1X1X1X1X1X1X1X1X1X1X1X1X1X1X",
"1X1X1X1X1X1X1X1X1X1X1X1X1X1X1X1X1X1X1X1X1X1X1X1X1X1X1X1X1X1X1X1X1X1X1X1X1X1X1X1X1X1X1X1X1X1X1X1X1X1X1X1X1X1X1X1X1X1X1X1X1X1X1X1X",
"1X1X1X1X1X1X1X1X1X1X1X1X1X1X1X1X1X1X1X1X1X1X1X1X1X1X1X1X1X1X1X1X1X1X1X1X1X1X1X1X1X1X1X1X1X1X1X1X1X1X1X1X1X1X1X1X1X1X1X1X1X1X1X1X",
"1X1X1X1X1X1X1X1X1X1X1X1X1X1X1X1X1X1X1X1X1X1X1X1X1X1X1X1X1X1X1X1X1X1X1X1X1X1X1X1X1X1X1X1X1X1X1X1X1X1X1X1X1X1X1X1X1X1X1X1X1X1X1X1X",
"1X1X1X1X1X1X1X1X1X1X1X1X1X1X1X1X1X1X1X1X1X1X1X1X1X1X1X1X1X1X1X1X1X1X1X1X1X1X1X1X1X1X1X1X1X1X1X1X1X1X1X1X1X1X1X1X1X1X1X1X1X1X1X1X",
"1X1X1X1X1X1X1X1X1X1X1X1X1X1X1X1X1X1X1X1X1X1X1X1X1X1X1X1X1X1X1X1X1X1X1X1X1X1X1X1X1X1X1X1X1X1X1X1X1X1X1X1X1X1X1X1X1X1X1X1X1X1X1X1X",
"1X1X1X1X1X1X1X1X1X1X1X1X1X1X1X1X1X1X1X1X1X1X1X1X1X1X1X1X1X1X1X1X1X1X1X1X1X1X1X1X1X1X1X1X1X1X1X1X1X1X1X1X1X1X1X1X1X1X1X1X1X1X1X1X",
"1X1X1X1X1X1X1X1X1X1X1X1X1X1X1X1X1X1X1X1X1X1X1X1X1X1X1X1X1X1X1X1X1X1X1X1X1X1X1X1X1X1X1X1X1X1X1X1X1X1X1X1X1X1X1X1X1X1X1X1X1X1X1X1X",
"1X1X1X1X,X%X@X1X1X1X1X1X1X1X1X1X1X1X1X1X1X1X1X1X1X1X1X1X1X1X1X1X1X1X1X1X1X1X1X1X1X1X1X1X1X1X<X;X#X+X1X1X1X1X1X1X1X1X1X1X1X1X1X1X",
"1X1X1X:X.XW.m.-.1X1X1X1X1X1X1X1X1X1X1X1X1X1X1X1X1X1X1X1X1X1X1X1X1X1X1X1X1X1X1X1X1X1X1X1X1X1X=X(.J.8...1X1X1X1X1X1X1X1X1X1X1X1X1X",
"1X1X1X$XW.m.*.l r 1X1X1X1X1X1X1X1X1X1X1X1X1X1X1X1X1X1X1X1X1X1X1X1X1X1X1X1X1X1X1X1X1X1X1X1X>X'.J.8.! e 1X1X1X1X1X1X1X1X1X1X1X1X1X",
"1X1X1X).m.*.l 9 9 1X1X1X1X1X1X1X1X1X1X1X1X1X1X1X1X1X1X1X1X1X1X1X1X1X1X1X1X1X1X1X1X1X1X1X1X-XJ.8.~ e 9 1X1X1X1X1X1X1X1X1X1X1X1X1X",
"1X1X1XC.=.l 9 9 1X1X~./.^.(.(.1X1X1X1X1X1X1X1X1X1X1X1X1X1X1X1X1X1X1X1X1X1X1X1X1X1X1X1X1X1X1Xx.~ e 9 9 1X1X1X1X1X1X1X1X1X1X1X1X1X",
"1X1X1X1X .y 9 1X1XI.U.E.W.W.1X1X1X1X1X1X1X1X1X1X1X1X1X1X1X1X1X1X1X1X1X1X1X1X1X1X1X1X1X1X1X1X1XT q 1X1X1X1X1X1X1X1X1X1X1X1X1X1X1X",
"1X1X1X1X1X1X1X1X1XH.H.J.L.I.1X1X1X1X1X1X1X1X1X1X1X1X1X1X1X1X1X1X1X1X1X1X1X1X1X1X1X1X1X1X1X1X1X1X1X1X1X1X1X1X1X1X1X1X1X1X1X1X1X1X",
"1X1X[.L.4.v u 1X1Xm.M.M.B.V.B 8.1X1X1X1X}.(.Q.U.H.M.b.1X1X1X1X1X1X1X'.H.>.t n 1X1X1X1X1X1X~.m.[ e Q 1X(.L.8.b u ~ [ m.!.oX X1X1X",
"1X1X/.B.*.k 1.1X1Xl.z.b.n.a.* 8.1X1X1X&XoX.X[./.W.L.V.m.1X1X1X1XOXoX[.H.>.t p V.m.1X1X1X1XU.l.W E 3.1X!.V.;.k 1.z #.M./.oX.XQ.1X",
"1X1XW.b._ o.5.1X1X6.6.7.j.@.5 l.1X1XU V - , P `.'.!.U.H.M.1X1X(.oXoX[.H.>.t 1 (.E.J.1X1X1XJ.4.M v.:.1XW.n.` X.5.j *.B.h.f.d.Z.K.",
"1X1XI.8.) M.,.1X1X] *.;.:.S Z z.1X%.:.;.[ ` Z o _.{.(.W.I.1XH.(.oXoX[.H.>.t 6 &X X'.1X1XQ.M.#.0.l.1X1XI.8.( M.=.s K N 3 f i % c ",
"1X1XV.;.t.n.;.1X].C _ ` ] ; G b.1XM.n.z.k.7.1X1X1XXX|.'.1X1XN.(.oXOXR.1X1Xw 7 XXOXOXoX1XU.l.' V.5.1X1XV.>.e.n.~ a 1X;.;.[ _ W b ",
"1XU.n.` F.l.1X1X*X8 b m H 1X1X1XW.U.L.H.V.M.1X1X1XOX1X1X1X:.N.(.oXf.. 1X1X1XF '.{.XXoX1XL.5.o.M.,.1X1Xm.] D.l.R 1X1X1Xl.j.6.:.*.",
"1XL.8.( V.5.1X1XXXY 2 s l 1X1X1X{.'.(.!.W.1X1X1X1X1X1X1X1X*.N.(.P   1X1X1X1Xq.E.Q.(.{.1XB.*.t.n.;.1XH.l.^ H.9.1X1X1X1XV.B.m.n.l.",
"1XV.>.| M.,.1X1X{.{.X $ 0 1X1X1XOXoXXX.X{.1X1X1X1X1X1X1X1X#.N.I @ l 1X1X1X1Xn.B.H.U.Q.1Xb._ c.l.#.1XB.<.} M.,.1X1X1X1Xn.I.I.J.1X",
"1Xm.] y.n.*.1X1X/.(.Y.O + 1X1X1XXXoXOXOXOXL 1X1X1X'. X1X1X*.w.# j _ 1X1X1X*.3.k.n.M.H.V.8./ H.5.1X1Xm.[ +.n.;.1X1X1XH.B.B.~.Q.1X",
"1Xl.^ G.l.[ 1X1XU.W.W.Q.g.h.'.1X1X(.[.|.XXd.4 >.n.L./..X1X>.A s ~ ,.p.: < m _ #.,.9.1XM.;.O.M.,.1X1Xl.^ G.l.[ 1X1X1XW.I.H.E.{.1X",
"1X<.u.V.5.` 1X1XV.H.L.I.U.W.Q.1X1XL.I.W.!.^.= x *.l.H.Q.{.1Xh ! :.z.H.T.D & d b ~ [ 1Xb.{ P.m.*.1X1X4.y.H.9._ 1X1X1X'.~.W.E.XX1X",
"n.r.W.M.,.1X1X1Xn.m.M.B.V.H.L.1X1X1Xb.m.N.J.S.> g [ 9.B.1X1XW :.l.V.W.[.oX].s.J x 1X1X8.A.L.l.] 1Xl.2.Q.B.,.1X1X1X1X.X{.'./. X1X",
"m.(.U.n.*.1X1X1X1Xj.k.z.n.m.M.1X1X1X1X,.5.k.z.m.&.$.i.1X1X1X1Xl.V.W.'.XXoX(.H.8.1X1X1XG.(.H.9._ 1Xv.(.E.m.;.1X1X1X1XOXoX.X{.{.1X",
"1X1X1X1X1X1X1X1X1X1X3.6.j.k.1X1X1X1X1X1X1X] *.,.j.1X1X1X1X1X1X1X1X(.XXoX'.L.1X1X1X1X1X1X1X1X1X1X1X1X1X1X1X1X1X1X1X1X1X1X1X1X1X1X",
"1X1X1X1X1X1X1X1X1X1X1X1X1X1X1X1X1X1X1X1X1X1X1X1X1X1X1X1X1X1X1X1X1X1X1X1X1X1X1X1X1X1X1X1X1X1X1X1X1X1X1X1X1X1X1X1X1X1X1X1X1X1X1X1X",
"1X1X1X1X1X1X1X1X1X1X1X1X1X1X1X1X1X1X1X1X1X1X1X1X1X1X1X1X1X1X1X1X1X1X1X1X1X1X1X1X1X1X1X1X1X1X1X1X1X1X1X1X1X1X1X1X1X1X1X1X1X1X1X1X",
"1X1X1X1X1X1X1X1X1X1X1X1X1X1X1X1X1X1X1X1X1X1X1X1X1X1X1X1X1X1X1X1X1X1X1X1X1X1X1X1X1X1X1X1X1X1X1X1X1X1X1X1X1X1X1X1X1X1X1X1X1X1X1X1X",
"1X1X1X1X1X1X1X1X1X1X1X1X1X1X1X1X1X1X1X1X1X1X1X1X1X1X1X1X1X1X1X1X1X1X1X1X1X1X1X1X1X1X1X1X1X1X1X1X1X1X1X1X1X1X1X1X1X1X1X1X1X1X1X1X",
"1X1X1X1X1X1X1X1X1X1X1X1X1X1X1X1X1X1X1X1X1X1X1X1X1X1X1X1X1X1X1X1X1X1X1X1X1X1X1X1X1X1X1X1X1X1X1X1X1X1X1X1X1X1X1X1X1X1X1X1X1X1X1X1X",
"1X1X1X1X1X1X1X1X1X1X1X1X1X1X1X1X1X1X1X1X1X1X1X1X1X1X1X1X1X1X1X1X1X1X1X1X1X1X1X1X1X1X1X1X1X1X1X1X1X1X1X1X1X1X1X1X1X1X1X1X1X1X1X1X",
"1X1X1X1X1X1X1X1X1X1X1X1X1X1X1X1X1X1X1X1X1X1X1X1X1X1X1X1X1X1X1X1X1X1X1X1X1X1X1X1X1X1X1X1X1X1X1X1X1X1X1X1X1X1X1X1X1X1X1X1X1X1X1X1X",
"1X1X1X1X1X1X1X1X1X1X1X1X1X1X1X1X1X1X1X1X1X1X1X1X1X1X1X1X1X1X1X1X1X1X1X1X1X1X1X1X1X1X1X1X1X1X1X1X1X1X1X1X1X1X1X1X1X1X1X1X1X1X1X1X",
"1X1X1X1X1X1X1X1X1X1X1X1X1X1X1X1X1X1X1X1X1X1X1X1X1X1X1X1X1X1X1X1X1X1X1X1X1X1X1X1X1X1X1X1X1X1X1X1X1X1X1X1X1X1X1X1X1X1X1X1X1X1X1X1X",
"1X1X1X1X1X1X1X1X1X1X1X1X1X1X1X1X1X1X1X1X1X1X1X1X1X1X1X1X1X1X1X1X1X1X1X1X1X1X1X1X1X1X1X1X1X1X1X1X1X1X1X1X1X1X1X1X1X1X1X1X1X1X1X1X",
"1X1X1X1X1X1X1X1X1X1X1X1X1X1X1X1X1X1X1X1X1X1X1X1X1X1X1X1X1X1X1X1X1X1X1X1X1X1X1X1X1X1X1X1X1X1X1X1X1X1X1X1X1X1X1X1X1X1X1X1X1X1X1X1X",
"1X1X1X1X1X1X1X1X1X1X1X1X1X1X1X1X1X1X1X1X1X1X1X1X1X1X1X1X1X1X1X1X1X1X1X1X1X1X1X1X1X1X1X1X1X1X1X1X1X1X1X1X1X1X1X1X1X1X1X1X1X1X1X1X",
"1X1X1X1X1X1X1X1X1X1X1X1X1X1X1X1X1X1X1X1X1X1X1X1X1X1X1X1X1X1X1X1X1X1X1X1X1X1X1X1X1X1X1X1X1X1X1X1X1X1X1X1X1X1X1X1X1X1X1X1X1X1X1X1X",
"1X1X1X1X1X1X1X1X1X1X1X1X1X1X1X1X1X1X1X1X1X1X1X1X1X1X1X1X1X1X1X1X1X1X1X1X1X1X1X1X1X1X1X1X1X1X1X1X1X1X1X1X1X1X1X1X1X1X1X1X1X1X1X1X",
"1X1X1X1X1X1X1X1X1X1X1X1X1X1X1X1X1X1X1X1X1X1X1X1X1X1X1X1X1X1X1X1X1X1X1X1X1X1X1X1X1X1X1X1X1X1X1X1X1X1X1X1X1X1X1X1X1X1X1X1X1X1X1X1X",
"1X1X1X1X1X1X1X1X1X1X1X1X1X1X1X1X1X1X1X1X1X1X1X1X1X1X1X1X1X1X1X1X1X1X1X1X1X1X1X1X1X1X1X1X1X1X1X1X1X1X1X1X1X1X1X1X1X1X1X1X1X1X1X1X",
"1X1X1X1X1X1X1X1X1X1X1X1X1X1X1X1X1X1X1X1X1X1X1X1X1X1X1X1X1X1X1X1X1X1X1X1X1X1X1X1X1X1X1X1X1X1X1X1X1X1X1X1X1X1X1X1X1X1X1X1X1X1X1X1X",
"1X1X1X1X1X1X1X1X1X1X1X1X1X1X1X1X1X1X1X1X1X1X1X1X1X1X1X1X1X1X1X1X1X1X1X1X1X1X1X1X1X1X1X1X1X1X1X1X1X1X1X1X1X1X1X1X1X1X1X1X1X1X1X1X",
"1X1X1X1X1X1X1X1X1X1X1X1X1X1X1X1X1X1X1X1X1X1X1X1X1X1X1X1X1X1X1X1X1X1X1X1X1X1X1X1X1X1X1X1X1X1X1X1X1X1X1X1X1X1X1X1X1X1X1X1X1X1X1X1X",
"1X1X1X1X1X1X1X1X1X1X1X1X1X1X1X1X1X1X1X1X1X1X1X1X1X1X1X1X1X1X1X1X1X1X1X1X1X1X1X1X1X1X1X1X1X1X1X1X1X1X1X1X1X1X1X1X1X1X1X1X1X1X1X1X",
"1X1X1X1X1X1X1X1X1X1X1X1X1X1X1X1X1X1X1X1X1X1X1X1X1X1X1X1X1X1X1X1X1X1X1X1X1X1X1X1X1X1X1X1X1X1X1X1X1X1X1X1X1X1X1X1X1X1X1X1X1X1X1X1X",
"1X1X1X1X1X1X1X1X1X1X1X1X1X1X1X1X1X1X1X1X1X1X1X1X1X1X1X1X1X1X1X1X1X1X1X1X1X1X1X1X1X1X1X1X1X1X1X1X1X1X1X1X1X1X1X1X1X1X1X1X1X1X1X1X",
"1X1X1X1X1X1X1X1X1X1X1X1X1X1X1X1X1X1X1X1X1X1X1X1X1X1X1X1X1X1X1X1X1X1X1X1X1X1X1X1X1X1X1X1X1X1X1X1X1X1X1X1X1X1X1X1X1X1X1X1X1X1X1X1X"
};
